<svg width="65" height="64" viewBox="0 0 65 64" fill="none" xmlns="http://www.w3.org/2000/svg">
<path d="M32.4102 0C26.0812 0 19.8943 1.87676 14.6319 5.39297C9.36953 8.90917 5.26805 13.9069 2.84605 19.7541C0.424045 25.6014 -0.209693 32.0355 1.02503 38.2429C2.25976 44.4503 5.30748 50.1521 9.78276 54.6274C14.258 59.1027 19.9599 62.1504 26.1673 63.3851C32.3747 64.6198 38.8088 63.9861 44.656 61.5641C50.5033 59.1421 55.501 55.0406 59.0172 49.7782C62.5334 44.5159 64.4102 38.329 64.4102 32C64.4102 23.5131 61.0387 15.3737 55.0376 9.37258C49.0364 3.37141 40.8971 0 32.4102 0ZM15.1097 36.096C15.1097 36.7556 14.8476 37.3882 14.3812 37.8546C13.9148 38.321 13.2822 38.583 12.6226 38.583C11.963 38.583 11.3305 38.321 10.8641 37.8546C10.3976 37.3882 10.1356 36.7556 10.1356 36.096V27.904C10.1356 27.2444 10.3976 26.6118 10.8641 26.1454C11.3305 25.679 11.963 25.417 12.6226 25.417C13.2822 25.417 13.9148 25.679 14.3812 26.1454C14.8476 26.6118 15.1097 27.2444 15.1097 27.904V36.096ZM23.2044 44.4723C23.2044 45.1323 22.9423 45.7652 22.4756 46.2318C22.009 46.6985 21.376 46.9606 20.7161 46.9606C20.0561 46.9606 19.4232 46.6985 18.9566 46.2318C18.4899 45.7652 18.2278 45.1323 18.2278 44.4723V19.5302C18.2278 18.8703 18.4899 18.2374 18.9566 17.7707C19.4232 17.3041 20.0561 17.0419 20.7161 17.0419C21.376 17.0419 22.009 17.3041 22.4756 17.7707C22.9423 18.2374 23.2044 18.8703 23.2044 19.5302V44.4723ZM31.2965 51.7632C31.2965 52.4228 31.0345 53.0554 30.5681 53.5218C30.1017 53.9882 29.4691 54.2502 28.8095 54.2502C28.1499 54.2502 27.5173 53.9882 27.0509 53.5218C26.5845 53.0554 26.3225 52.4228 26.3225 51.7632V12.2394C26.3225 11.5797 26.5845 10.9472 27.0509 10.4808C27.5173 10.0143 28.1499 9.75232 28.8095 9.75232C29.4691 9.75232 30.1017 10.0143 30.5681 10.4808C31.0345 10.9472 31.2965 11.5797 31.2965 12.2394V51.7632ZM39.3913 44.1728C39.3913 44.8324 39.1292 45.465 38.6628 45.9314C38.1964 46.3978 37.5638 46.6598 36.9042 46.6598C36.2446 46.6598 35.6121 46.3978 35.1456 45.9314C34.6792 45.465 34.4172 44.8324 34.4172 44.1728V19.8298C34.4172 19.1701 34.6792 18.5376 35.1456 18.0711C35.6121 17.6047 36.2446 17.3427 36.9042 17.3427C37.5638 17.3427 38.1964 17.6047 38.6628 18.0711C39.1292 18.5376 39.3913 19.1701 39.3913 19.8298V44.1728ZM47.486 47.9513C47.486 48.2781 47.4216 48.6017 47.2966 48.9036C47.1715 49.2055 46.9883 49.4798 46.7572 49.7109C46.5261 49.9419 46.2518 50.1252 45.9499 50.2502C45.648 50.3753 45.3244 50.4397 44.9977 50.4397C44.6709 50.4397 44.3473 50.3753 44.0454 50.2502C43.7435 50.1252 43.4692 49.9419 43.2382 49.7109C43.0071 49.4798 42.8238 49.2055 42.6988 48.9036C42.5737 48.6017 42.5093 48.2781 42.5093 47.9513V16.0512C42.5093 15.7244 42.5737 15.4009 42.6988 15.099C42.8238 14.7971 43.0071 14.5227 43.2382 14.2917C43.4692 14.0606 43.7435 13.8773 44.0454 13.7523C44.3473 13.6272 44.6709 13.5629 44.9977 13.5629C45.3244 13.5629 45.648 13.6272 45.9499 13.7523C46.2518 13.8773 46.5261 14.0606 46.7572 14.2917C46.9883 14.5227 47.1715 14.7971 47.2966 15.099C47.4216 15.4009 47.486 15.7244 47.486 16.0512V47.9513ZM55.5781 35.7632C55.5781 36.4228 55.3161 37.0554 54.8497 37.5218C54.3833 37.9882 53.7507 38.2502 53.0911 38.2502C52.4315 38.2502 51.7989 37.9882 51.3325 37.5218C50.8661 37.0554 50.6041 36.4228 50.6041 35.7632V28.2393C50.6041 27.5797 50.8661 26.9472 51.3325 26.4808C51.7989 26.0143 52.4315 25.7523 53.0911 25.7523C53.7507 25.7523 54.3833 26.0143 54.8497 26.4808C55.3161 26.9472 55.5781 27.5797 55.5781 28.2393V35.7632Z" fill="url(#paint0_linear_20335_28257)"/>
<defs>
<linearGradient id="paint0_linear_20335_28257" x1="45.5011" y1="64" x2="8.41015" y2="3.63636" gradientUnits="userSpaceOnUse">
<stop stop-color="#98B4F1"/>
<stop offset="1" stop-color="#0061FF"/>
</linearGradient>
</defs>
</svg>
